<?xml version="1.0" encoding="utf-8"?>
<!-- Generator: Adobe Illustrator 16.0.0, SVG Export Plug-In . SVG Version: 6.00 Build 0)  -->
<!DOCTYPE svg PUBLIC "-//W3C//DTD SVG 1.1//EN" "http://www.w3.org/Graphics/SVG/1.1/DTD/svg11.dtd">
<svg version="1.1" id="레이어_1" xmlns="http://www.w3.org/2000/svg" xmlns:xlink="http://www.w3.org/1999/xlink" x="0px"
	 y="0px" width="76.54px" height="22.68px" viewBox="0 0 76.54 22.68" enable-background="new 0 0 76.54 22.68"
	 xml:space="preserve">
<g>
	<path fill="#1B1B1B" d="M0.614,12.119v-9.84h3.432v1.896h0.888V2.279h3.432v1.896h0.912V2.279h3.432v9.84H0.614z M16.395,19.234
		c-0.712,0.696-1.612,1.045-2.7,1.045H4.91c-1.088,0-1.988-0.349-2.7-1.045c-0.712-0.695-1.068-1.58-1.068-2.651
		s0.356-1.956,1.068-2.652c0.711-0.696,1.612-1.044,2.7-1.044h8.784c1.088,0,1.988,0.348,2.7,1.044
		c0.711,0.696,1.068,1.581,1.068,2.652S17.106,18.539,16.395,19.234z M4.934,7.295H4.046v1.704h0.888V7.295z M6.11,16.127
		c-0.128,0-0.236,0.044-0.324,0.132c-0.088,0.089-0.132,0.196-0.132,0.324s0.044,0.235,0.132,0.323
		c0.088,0.089,0.196,0.133,0.324,0.133h6.384c0.128,0,0.236-0.044,0.324-0.133c0.088-0.088,0.132-0.195,0.132-0.323
		s-0.044-0.235-0.132-0.324c-0.088-0.088-0.196-0.132-0.324-0.132H6.11z M8.366,7.295v1.704h0.912V7.295H8.366z M17.415,5.495h1.8
		v3.36h-1.8v3.383h-3.792v-10.2h3.792V5.495z"/>
	<path fill="#1B1B1B" d="M20.054,12.119v-9.84h3.432v1.896h0.888V2.279h3.432v1.896h0.912V2.279h3.432v9.84H20.054z M35.834,19.234
		c-0.712,0.696-1.612,1.045-2.7,1.045H24.35c-1.088,0-1.988-0.349-2.7-1.045c-0.712-0.695-1.068-1.58-1.068-2.651
		s0.356-1.956,1.068-2.652c0.711-0.696,1.612-1.044,2.7-1.044h8.784c1.088,0,1.988,0.348,2.7,1.044
		c0.711,0.696,1.068,1.581,1.068,2.652S36.546,18.539,35.834,19.234z M24.374,7.295h-0.888v1.704h0.888V7.295z M25.55,16.127
		c-0.128,0-0.236,0.044-0.324,0.132c-0.088,0.089-0.132,0.196-0.132,0.324s0.044,0.235,0.132,0.323
		c0.088,0.089,0.196,0.133,0.324,0.133h6.384c0.128,0,0.236-0.044,0.324-0.133c0.088-0.088,0.132-0.195,0.132-0.323
		s-0.044-0.235-0.132-0.324c-0.088-0.088-0.196-0.132-0.324-0.132H25.55z M27.806,7.295v1.704h0.912V7.295H27.806z M36.854,5.495
		h1.8v3.36h-1.8v3.383h-3.792v-10.2h3.792V5.495z"/>
	<path fill="#1B1B1B" d="M50.222,19.559H39.494V2.231h10.728V19.559z M44.006,5.831v10.128h1.703V5.831H44.006z M56.365,9.215h1.801
		v3.6h-1.801v7.465h-4.512V2.039h4.512V9.215z"/>
	<path fill="#1B1B1B" d="M65.846,7.079c-0.24,1.424-0.704,2.652-1.392,3.684c-0.688,1.032-1.509,1.816-2.46,2.353
		c-0.952,0.535-1.948,0.804-2.988,0.804l-0.48-2.88c0.545,0,1.036-0.171,1.477-0.516c0.439-0.344,0.82-0.82,1.141-1.428
		l-2.137-0.096v-2.4h2.904c0.063-0.432,0.096-0.912,0.096-1.44h-3v-2.88h7.008v2.712v0.408h1.008v-3.36h4.272v10.296h-4.272V8.999
		h-1.176V7.079z M76.046,20.279c-1.664,0-3.172-0.213-4.524-0.637c-1.352-0.424-2.483-1.035-3.396-1.836
		c-0.912,0.801-2.044,1.412-3.396,1.836c-1.354,0.424-2.861,0.637-4.524,0.637l-0.479-3.601c1.76,0,3.199-0.3,4.319-0.899
		c1.12-0.601,1.728-1.508,1.824-2.725h4.512c0.097,1.217,0.704,2.124,1.824,2.725c1.12,0.6,2.56,0.899,4.319,0.899L76.046,20.279z
		 M76.286,2.039v11.016h-4.272V2.039H76.286z"/>
</g>
<g>
</g>
<g>
</g>
<g>
</g>
<g>
</g>
<g>
</g>
<g>
</g>
</svg>
